# xmcd CD database file
#
# Track frame offsets:
#	150
#	55773
#	86245
#	95915
#	108505
#	155810
#	168775
#	181598
#	194558
#	208053
#	221093
#	233080
#	244840
#	276248
#	304768
#
# Disc length: 4365 seconds
#
# Revision: 0
# Processed by: cddbd v1.5.1PL0 Copyright (c) Steve Scherf et al.
# Submitted via: CDex 1.51
#
DISCID=db110b0f
DTITLE=東儀兼彦 - 喜瑞1
DYEAR=2002
DGENRE=Instrumental
TTITLE0=庭火
TTITLE1=縒合
TTITLE2=神楽笛の「朝倉音取」
TTITLE3=篳篥の「朝倉音取」
TTITLE4=其駒
TTITLE5=狛調子
TTITLE6=壱超調
TTITLE7=平調
TTITLE8=双調
TTITLE9=黄鐘調
TTITLE10=盤渉調
TTITLE11=太食調
TTITLE12=篳篥の唱歌による「超天楽残楽」
TTITLE13=笙の唱歌による「陪ろ」
TTITLE14=更衣
EXTD=YEAR: 2002
EXTT0=
EXTT1=
EXTT2=
EXTT3=
EXTT4=
EXTT5=
EXTT6=
EXTT7=
EXTT8=
EXTT9=
EXTT10=
EXTT11=
EXTT12=
EXTT13=
EXTT14=
PLAYORDER=
